<svg width="210" height="340" xmlns="http://www.w3.org/2000/svg">
 <style type="text/css">.st0{fill:none;}</style>

 <g>
  <title>background</title>
  <rect fill="none" id="canvas_background" height="342" width="212" y="-1" x="-1"/>
 </g>
 <g>
  <title>Layer 1</title>
  <g id="svg_13">
   <g id="svg_1">
    <path fill="#ffffff" id="svg_2" d="m139.900003,224.550012l6.9,-12.2l-42.1,-24c-1.8,4.4 -4.2,8.4 -7.1,12.1l42.3,24.1z"/>
    <path fill="#ffffff" id="svg_3" d="m133.300003,100.150012c1.7,11.6 -0.9,21.6 -7.6,28.9c-6,6.5 -15,10.6 -26.5,12.3c5.4,7.5 8.8,16.6 9.2,26.4c1,0.4 1.9,1 2.7,1.8c0.5,-2.2 2.2,-4.2 4.5,-5c2.3,-0.8 4.7,-0.4 6.5,1c0.1,-2.2 1.2,-4.4 3.3,-5.7c2,-1.2 4.4,-1.4 6.4,-0.5c-0.4,-2.1 0.1,-4.4 1.7,-6.2l0,0c1.6,-1.7 3.8,-2.5 6,-2.2c-1,-1.9 -1.1,-4.3 0,-6.4c1.1,-2.1 3.1,-3.5 5.3,-3.8c-1.5,-1.6 -2.2,-4 -1.6,-6.3c0.6,-2.4 2.3,-4.2 4.5,-5c-1.9,-1.4 -3,-3.6 -2.9,-6.1c0.1,-2.5 1.6,-4.6 3.7,-5.8c-2.1,-1.1 -3.6,-3.2 -3.8,-5.7c-0.2,-2.6 1,-4.9 3,-6.3c-2.3,-0.8 -4,-2.8 -4.5,-5.4c-0.6,-3.4 1.4,-6.7 4.5,-7.8c-2.4,-1.9 -3.3,-5.3 -2.1,-8.3c1.2,-2.7 3.9,-4.3 6.7,-4.2c-0.3,-0.4 -0.5,-0.9 -0.7,-1.4c-17.5,7.4 -19.4,14.8 -18.3,21.7z" class="st0"/>
    <path fill="#ffffff" id="svg_4" d="m172.800003,64.850012c-0.9,-3.2 -3.8,-5.3 -7,-5.2c-0.1,0 -0.1,0 -0.2,0c-1,0 -2,0.2 -2.9,0.6c-15.4,4.1 -47.6,13.7 -43.4,42c1.1,7.4 -0.3,13.2 -4.1,17.3c-5.4,5.9 -16.2,8.9 -30.5,8.5c5.6,3.4 10.5,7.9 14.3,13.2c11.5,-1.6 20.6,-5.8 26.5,-12.3c6.7,-7.3 9.4,-17.3 7.6,-28.9c-1,-7 0.9,-14.3 18.2,-21.4c0.2,0.5 0.4,0.9 0.7,1.4c-2.8,-0.1 -5.5,1.5 -6.7,4.2c-1.3,3 -0.4,6.3 2.1,8.3c-3.2,1.1 -5.1,4.4 -4.5,7.8c0.4,2.5 2.2,4.5 4.5,5.4c-2,1.4 -3.2,3.7 -3,6.3c0.2,2.5 1.7,4.6 3.8,5.7c-2.1,1.1 -3.5,3.2 -3.7,5.8c-0.1,2.5 1,4.7 2.9,6.1c-2.1,0.8 -3.9,2.6 -4.5,5c-0.5,2.3 0.1,4.7 1.6,6.3c-2.2,0.3 -4.2,1.6 -5.3,3.8c-1.1,2.1 -1,4.4 0,6.4c-2.1,-0.3 -4.4,0.5 -6,2.2l0,0c-1.6,1.7 -2.1,4 -1.7,6.2c-2,-0.8 -4.4,-0.7 -6.4,0.5c-2,1.3 -3.2,3.4 -3.3,5.7c-1.8,-1.4 -4.2,-1.8 -6.5,-1c-2.3,0.8 -4,2.8 -4.5,5c-0.7,-0.8 -1.6,-1.4 -2.7,-1.8c0,0.7 0.1,1.5 0.1,2.2c0,3.8 -0.5,7.6 -1.3,11.2c2.8,-0.5 4.9,-2.7 5.5,-5.3c1.8,2 4.8,2.9 7.5,1.9c2.8,-1 4.6,-3.5 4.7,-6.3c2.2,1.7 5.4,1.9 7.9,0.3c2.5,-1.6 3.7,-4.6 3.1,-7.3c2.6,1.1 5.8,0.5 7.9,-1.7c2,-2.2 2.4,-5.4 1.1,-8c2.8,0.3 5.7,-1.1 7.1,-3.8c1.4,-2.7 0.8,-5.8 -1.1,-7.9c2.8,-0.4 5.1,-2.4 5.8,-5.3c0.7,-2.8 -0.5,-5.7 -2.7,-7.3c2.6,-0.9 4.5,-3.3 4.6,-6.2c0.2,-2.9 -1.4,-5.4 -3.8,-6.6c2.4,-1.3 3.9,-3.9 3.6,-6.7c-0.2,-2.8 -2.1,-5.1 -4.6,-6c2.2,-1.5 3.4,-4.2 2.9,-7c-0.3,-1.8 -1.2,-3.2 -2.5,-4.3c1.8,-0.6 3.3,-2 4.1,-3.8c1,-2.2 0.7,-4.7 -0.5,-6.6c2.3,0.1 4.6,-1 6,-3c1.3,-1.8 1.5,-4.1 0.9,-6.1c1,-0.3 2.1,-0.6 3.2,-0.9c4,-1 6.2,-4.9 5.2,-8.6z"/>
    <g id="svg_5">
     <path fill="#ffffff" id="svg_6" d="m87.000003,178.350012c0,0 0,0 0,0l0,0c0,0 0,0 0,0z"/>
     <path fill="#ffffff" id="svg_7" d="m108.300003,167.750012c-0.4,-9.9 -3.8,-18.9 -9.2,-26.4c-3.8,-5.3 -8.7,-9.8 -14.3,-13.2c-7.4,-4.5 -16.1,-7.1 -25.5,-7.1c-27.1,0 -49,21.9 -49,49s21.9,49 49,49c15.5,0 29.3,-7.2 38.3,-18.5c2.9,-3.6 5.3,-7.7 7.1,-12.1c1,-2.3 1.7,-4.8 2.3,-7.3c0.8,-3.6 1.3,-7.3 1.3,-11.2c0,-0.7 0,-1.4 0,-2.2zm-15.9,13.7c-0.1,0.3 -0.2,0.6 -0.3,0.9c-1.6,4.1 -3.9,7.9 -6.8,11.1c-6.4,7.1 -15.6,11.5 -25.9,11.5c-19.3,0 -35,-15.7 -35,-35s15.7,-35 35,-35c5.1,0 9.9,1.1 14.2,3c2.4,1.1 4.6,2.4 6.7,3.9c8.2,6.1 13.6,15.7 14.1,26.6c0,0.5 0,0.9 0,1.4c-0.1,4.1 -0.7,8 -2,11.6z"/>
    </g>
   </g>
   <g id="svg_8">
    <path fill="#ffffff" id="svg_9" d="m165.200003,211.150012c11.3,0 20.5,9.2 20.5,20.5s-9.2,20.5 -20.5,20.5s-20.5,-9.2 -20.5,-20.5s9.2,-20.5 20.5,-20.5m0,-14c-19.1,0 -34.5,15.4 -34.5,34.5s15.4,34.5 34.5,34.5s34.5,-15.4 34.5,-34.5s-15.4,-34.5 -34.5,-34.5l0,0z"/>
   </g>
   <g id="svg_10">
    <path fill="#ffffff" id="svg_11" d="m51.900003,78.650012l0,48.8l14,0l0,-48.6c15.9,-3.1 28,-17.1 28,-33.9c0,-19.1 -15.4,-34.5 -34.5,-34.5s-34.5,15.4 -34.5,34.5c-0.1,16.5 11.5,30.3 27,33.7zm7.4,-54.2c11.3,0 20.5,9.2 20.5,20.5s-9.1,20.5 -20.5,20.5c-11.3,0 -20.5,-9.2 -20.5,-20.5s9.2,-20.5 20.5,-20.5z"/>
    <path fill="#ffffff" id="svg_12" d="m65.600003,261.050012l0.3,0l0.5,-47.5l-14,-0.1l-0.5,47.5l1.9,0c-16.4,2.6 -29,16.9 -29,34.1c0,19.1 15.4,34.5 34.5,34.5s34.5,-15.4 34.5,-34.5c0,-17 -12.1,-31.1 -28.2,-34zm-6.3,54.4c-11.3,0 -20.5,-9.2 -20.5,-20.5c0,-11.3 9.2,-20.5 20.5,-20.5c11.3,0 20.5,9.2 20.5,20.5c0,11.3 -9.1,20.5 -20.5,20.5z"/>
   </g>
  </g>
 </g>
</svg>