<?xml version="1.0" encoding="UTF-8"?>
<svg viewBox="0 0 24 30" version="1.1" xmlns="http://www.w3.org/2000/svg" xmlns:xlink="http://www.w3.org/1999/xlink">
    <defs>
        <linearGradient x1="90.6367454%" y1="21.2451794%" x2="29.2859295%" y2="66.3541905%" id="linearGradient-1">
            <stop stop-color="#FFDC00" offset="0%"></stop>
            <stop stop-color="#FBA313" offset="80%"></stop>
        </linearGradient>
        <linearGradient x1="97.0433842%" y1="25.9651331%" x2="2.5871938%" y2="69.3709331%" id="linearGradient-2">
            <stop stop-color="#F05EB7" offset="4%"></stop>
            <stop stop-color="#A170CC" offset="80%"></stop>
        </linearGradient>
        <linearGradient x1="88.5259407%" y1="13.3910686%" x2="16.848415%" y2="82.7918218%" id="linearGradient-3">
            <stop stop-color="#FFDC00" offset="0%"></stop>
            <stop stop-color="#FBA313" offset="80%"></stop>
        </linearGradient>
        <linearGradient x1="77.3034518%" y1="15.6939474%" x2="25.1653087%" y2="81.5073762%" id="linearGradient-4">
            <stop stop-color="#FFDC00" offset="0%"></stop>
            <stop stop-color="#FBA313" offset="80%"></stop>
        </linearGradient>
        <linearGradient x1="90.0227698%" y1="8.70847276%" x2="20.5045718%" y2="79.900138%" id="linearGradient-5">
            <stop stop-color="#FFDC00" offset="0%"></stop>
            <stop stop-color="#FBA313" offset="80%"></stop>
        </linearGradient>
        <linearGradient x1="86.0571637%" y1="9.12056374%" x2="20.0118498%" y2="84.1591212%" id="linearGradient-6">
            <stop stop-color="#FFDC00" offset="0%"></stop>
            <stop stop-color="#FBA313" offset="80%"></stop>
        </linearGradient>
        <linearGradient x1="89.3853505%" y1="4.63382525%" x2="24.0146394%" y2="80.1697663%" id="linearGradient-7">
            <stop stop-color="#FFDC00" offset="4%"></stop>
            <stop stop-color="#FBA313" offset="80%"></stop>
        </linearGradient>
        <linearGradient x1="96.3525366%" y1="40.8878505%" x2="3.50801326%" y2="79.6728972%" id="linearGradient-8">
            <stop stop-color="#FFDF3F" offset="4%"></stop>
            <stop stop-color="#FBA313" offset="80%"></stop>
        </linearGradient>
    </defs>
    <g id="Page-1" stroke="none" stroke-width="1" fill="none" fill-rule="evenodd">
        <g id="kafkajs_circle" transform="translate(-13.000000, -10.000000)">
            <path d="M31.15,33 C35.07,30.32 37,24.84 35.47,19.22 C34,14 27.73,9.79 20.48,11.81 C17.48,12.66 14.82,13.91 13.59,15.69 C14.75,13.58 18.08,11.22 21.79,10.47 C29.89,8.84 35.47,13.58 36.69,19.06 C37.8100613,24.3975501 35.6283208,29.8873449 31.15,33 Z" id="Path" fill="url(#linearGradient-1)"></path>
            <path d="M31.15,33 L31.08,33 C30.6099009,33.3017123 30.1186226,33.5690746 29.61,33.8 C28.6222478,34.2194012 27.7074877,34.793236 26.9,35.5 C26.1000387,35.9893574 25.4819816,36.726812 25.14,37.6 C25.0729353,37.7825145 25.0390683,37.9755563 25.04,38.17 C25.0213232,38.3482342 25.0383203,38.5284032 25.09,38.7 C25.1227122,38.8217757 25.169705,38.9392575 25.23,39.05 C25.3044929,39.1805662 25.3989705,39.2986631 25.51,39.4 L25.63,39.49 C25.8000966,39.6020459 25.9902532,39.6801459 26.19,39.72 L26.39,39.72 C26.5461959,39.7371755 26.7038041,39.7371755 26.86,39.72 C26.7,39.72 26.33,39.81 26.01,39.85 L25.48,39.92 C25.2552302,39.9608665 25.0281171,39.9875857 24.8,40 C17.45,40.71 13.49,33.2 18.43,29 L18.59,28.87 C19.31,28.31 20.72,27.47 21.7,26.71 L21.97,26.49 L22.49,26.03 C22.9136489,25.6279155 23.2894694,25.178273 23.61,24.69 C23.67,24.59 23.72,24.49 23.78,24.4 C23.84,24.31 23.9,24.18 23.95,24.07 C24.0486622,23.8515089 24.1354552,23.6278501 24.21,23.4 C24.3351769,22.943832 24.3990714,22.4730303 24.4,22 C24.4178237,20.834745 24.1354321,19.6845155 23.58,18.66 C23.5330001,18.5611298 23.4760387,18.467311 23.41,18.38 C22.0057209,16.4112742 19.642167,15.3616571 17.24,15.64 L16.65,15.64 C14.17,15.94 13.42,17.03 13.2,16.72 C13.1729822,16.6630415 13.1729822,16.5969585 13.2,16.54 C13.1958849,16.5168481 13.1958849,16.4931519 13.2,16.47 C13.2694176,16.2097769 13.3882431,15.965336 13.55,15.75 L13.55,15.7 C14.303508,14.6728099 15.234875,13.788858 16.3,13.09 C17.5607628,12.2295636 18.9519229,11.5778793 20.42,11.16 C24.1730145,10.0624173 28.225058,10.8445213 31.3,13.26 C31.45,13.37 31.6,13.48 31.74,13.6 C33.2837336,14.8869608 34.4744538,16.5457097 35.2,18.42 C35.31,18.7 35.39,18.97 35.47,19.25 C37,24.87 35.07,30.35 31.15,33 Z" id="Path" fill="url(#linearGradient-2)"></path>
            <circle id="_Path_" fill="url(#linearGradient-3)" cx="17.98" cy="14.51" r="1.1"></circle>
            <circle id="_Path_2" fill="url(#linearGradient-4)" cx="19.08" cy="29.99" r="1.1"></circle>
            <circle id="_Path_3" fill="url(#linearGradient-5)" cx="24.41" cy="17.92" r="1.1"></circle>
            <circle id="_Path_4" fill="url(#linearGradient-6)" cx="24.64" cy="25.18" r="1.1"></circle>
            <circle id="_Path_5" fill="url(#linearGradient-7)" cx="18.38" cy="21.67" r="2.75"></circle>
            <path d="M28,39.59 C27.620978,39.6990868 27.2326437,39.7727364 26.84,39.81 C26.76,39.81 26.57,39.81 26.34,39.81 L26.14,39.81 C25.9402532,39.7701459 25.7500966,39.6920459 25.58,39.58 L25.46,39.49 C25.3489705,39.3886631 25.2544929,39.2705662 25.18,39.14 C25.119705,39.0292575 25.0727122,38.9117757 25.04,38.79 C24.9832272,38.5987063 24.9695662,38.397206 25,38.2 C24.9990683,38.0055563 25.0329353,37.8125145 25.1,37.63 C25.4419816,36.756812 26.0600387,36.0193574 26.86,35.53 C25.9567238,36.270962 25.6130996,37.4976205 26,38.6 C26.3889708,39.3210434 27.1907824,39.7179401 28,39.59 Z" id="Path" fill="url(#linearGradient-8)"></path>
        </g>
    </g>
</svg>
