<?xml version="1.0" encoding="utf-8"?>
<svg version="1.1" id="Layer_1" xmlns="http://www.w3.org/2000/svg" xmlns:xlink="http://www.w3.org/1999/xlink" x="0px" y="0px"
	 viewBox="0 0 500 500" style="enable-background:new 0 0 500 500;" xml:space="preserve">
<style type="text/css">
	.st0{fill:none;}
</style>
<g>
	<path d="M293.6,307.1l6.9-12.2l-42.1-24c-1.8,4.4-4.2,8.4-7.1,12.1L293.6,307.1z"/>
	<path class="st0" d="M287,182.7c1.7,11.6-0.9,21.6-7.6,28.9c-6,6.5-15,10.6-26.5,12.3c5.4,7.5,8.8,16.6,9.2,26.4
		c1,0.4,1.9,1,2.7,1.8c0.5-2.2,2.2-4.2,4.5-5c2.3-0.8,4.7-0.4,6.5,1c0.1-2.2,1.2-4.4,3.3-5.7c2-1.2,4.4-1.4,6.4-0.5
		c-0.4-2.1,0.1-4.4,1.7-6.2h0c1.6-1.7,3.8-2.5,6-2.2c-1-1.9-1.1-4.3,0-6.4c1.1-2.1,3.1-3.5,5.3-3.8c-1.5-1.6-2.2-4-1.6-6.3
		c0.6-2.4,2.3-4.2,4.5-5c-1.9-1.4-3-3.6-2.9-6.1c0.1-2.5,1.6-4.6,3.7-5.8c-2.1-1.1-3.6-3.2-3.8-5.7c-0.2-2.6,1-4.9,3-6.3
		c-2.3-0.8-4-2.8-4.5-5.4c-0.6-3.4,1.4-6.7,4.5-7.8c-2.4-1.9-3.3-5.3-2.1-8.3c1.2-2.7,3.9-4.3,6.7-4.2c-0.3-0.4-0.5-0.9-0.7-1.4
		C287.8,168.4,285.9,175.8,287,182.7z"/>
	<path d="M326.5,147.4c-0.9-3.2-3.8-5.3-7-5.2c-0.1,0-0.1,0-0.2,0c-1,0-2,0.2-2.9,0.6c-15.4,4.1-47.6,13.7-43.4,42
		c1.1,7.4-0.3,13.2-4.1,17.3c-5.4,5.9-16.2,8.9-30.5,8.5c5.6,3.4,10.5,7.9,14.3,13.2c11.5-1.6,20.6-5.8,26.5-12.3
		c6.7-7.3,9.4-17.3,7.6-28.9c-1-7,0.9-14.3,18.2-21.4c0.2,0.5,0.4,0.9,0.7,1.4c-2.8-0.1-5.5,1.5-6.7,4.2c-1.3,3-0.4,6.3,2.1,8.3
		c-3.2,1.1-5.1,4.4-4.5,7.8c0.4,2.5,2.2,4.5,4.5,5.4c-2,1.4-3.2,3.7-3,6.3c0.2,2.5,1.7,4.6,3.8,5.7c-2.1,1.1-3.5,3.2-3.7,5.8
		c-0.1,2.5,1,4.7,2.9,6.1c-2.1,0.8-3.9,2.6-4.5,5c-0.5,2.3,0.1,4.7,1.6,6.3c-2.2,0.3-4.2,1.6-5.3,3.8c-1.1,2.1-1,4.4,0,6.4
		c-2.1-0.3-4.4,0.5-6,2.2h0c-1.6,1.7-2.1,4-1.7,6.2c-2-0.8-4.4-0.7-6.4,0.5c-2,1.3-3.2,3.4-3.3,5.7c-1.8-1.4-4.2-1.8-6.5-1
		c-2.3,0.8-4,2.8-4.5,5c-0.7-0.8-1.6-1.4-2.7-1.8c0,0.7,0.1,1.5,0.1,2.2c0,3.8-0.5,7.6-1.3,11.2c2.8-0.5,4.9-2.7,5.5-5.3
		c1.8,2,4.8,2.9,7.5,1.9c2.8-1,4.6-3.5,4.7-6.3c2.2,1.7,5.4,1.9,7.9,0.3c2.5-1.6,3.7-4.6,3.1-7.3c2.6,1.1,5.8,0.5,7.9-1.7
		c2-2.2,2.4-5.4,1.1-8c2.8,0.3,5.7-1.1,7.1-3.8c1.4-2.7,0.8-5.8-1.1-7.9c2.8-0.4,5.1-2.4,5.8-5.3c0.7-2.8-0.5-5.7-2.7-7.3
		c2.6-0.9,4.5-3.3,4.6-6.2c0.2-2.9-1.4-5.4-3.8-6.6c2.4-1.3,3.9-3.9,3.6-6.7c-0.2-2.8-2.1-5.1-4.6-6c2.2-1.5,3.4-4.2,2.9-7
		c-0.3-1.8-1.2-3.2-2.5-4.3c1.8-0.6,3.3-2,4.1-3.8c1-2.2,0.7-4.7-0.5-6.6c2.3,0.1,4.6-1,6-3c1.3-1.8,1.5-4.1,0.9-6.1
		c1-0.3,2.1-0.6,3.2-0.9C325.3,155,327.5,151.1,326.5,147.4z"/>
	<g>
		<path d="M240.7,260.9C240.7,260.9,240.7,260.9,240.7,260.9L240.7,260.9C240.7,260.9,240.7,260.9,240.7,260.9z"/>
		<path d="M262,250.3c-0.4-9.9-3.8-18.9-9.2-26.4c-3.8-5.3-8.7-9.8-14.3-13.2c-7.4-4.5-16.1-7.1-25.5-7.1c-27.1,0-49,21.9-49,49
			s21.9,49,49,49c15.5,0,29.3-7.2,38.3-18.5c2.9-3.6,5.3-7.7,7.1-12.1c1-2.3,1.7-4.8,2.3-7.3c0.8-3.6,1.3-7.3,1.3-11.2
			C262,251.8,262,251.1,262,250.3z M246.1,264c-0.1,0.3-0.2,0.6-0.3,0.9c-1.6,4.1-3.9,7.9-6.8,11.1c-6.4,7.1-15.6,11.5-25.9,11.5
			c-19.3,0-35-15.7-35-35s15.7-35,35-35c5.1,0,9.9,1.1,14.2,3c2.4,1.1,4.6,2.4,6.7,3.9c8.2,6.1,13.6,15.7,14.1,26.6
			c0,0.5,0,0.9,0,1.4C248,256.5,247.4,260.4,246.1,264z"/>
	</g>
</g>
<g>
	<path d="M318.9,293.7c11.3,0,20.5,9.2,20.5,20.5s-9.2,20.5-20.5,20.5s-20.5-9.2-20.5-20.5S307.6,293.7,318.9,293.7 M318.9,279.7
		c-19.1,0-34.5,15.4-34.5,34.5s15.4,34.5,34.5,34.5s34.5-15.4,34.5-34.5S338,279.7,318.9,279.7L318.9,279.7z"/>
</g>
<g>
	<path d="M205.6,161.2V210h14v-48.6c15.9-3.1,28-17.1,28-33.9c0-19.1-15.4-34.5-34.5-34.5s-34.5,15.4-34.5,34.5
		C178.5,144,190.1,157.8,205.6,161.2z M213,107c11.3,0,20.5,9.2,20.5,20.5S224.4,148,213,148c-11.3,0-20.5-9.2-20.5-20.5
		S201.7,107,213,107z"/>
	<path d="M219.3,343.6l0.3,0l0.5-47.5l-14-0.1l-0.5,47.5l1.9,0c-16.4,2.6-29,16.9-29,34.1c0,19.1,15.4,34.5,34.5,34.5
		s34.5-15.4,34.5-34.5C247.5,360.6,235.4,346.5,219.3,343.6z M213,398c-11.3,0-20.5-9.2-20.5-20.5c0-11.3,9.2-20.5,20.5-20.5
		c11.3,0,20.5,9.2,20.5,20.5C233.5,388.8,224.4,398,213,398z"/>
</g>
</svg>
