<svg id="Layer_1" data-name="Layer 1" xmlns="http://www.w3.org/2000/svg" xmlns:xlink="http://www.w3.org/1999/xlink" viewBox="0 0 60 60"><defs><style>.cls-1{fill:url(#linear-gradient);}.cls-2{fill:url(#linear-gradient-2);}.cls-3{fill:url(#linear-gradient-3);}.cls-4{fill:url(#linear-gradient-4);}.cls-5{fill:url(#linear-gradient-5);}.cls-6{fill:url(#linear-gradient-6);}.cls-7{fill:url(#linear-gradient-7);}.cls-8{fill:url(#linear-gradient-8);}.cls-9{fill:#34004b;}</style><linearGradient id="linear-gradient" x1="39.67" y1="10.94" x2="25.32" y2="21.26" gradientUnits="userSpaceOnUse"><stop offset="0" stop-color="#ffdc00"/><stop offset="0.8" stop-color="#fba313"/></linearGradient><linearGradient id="linear-gradient-2" x1="39.32" y1="14.88" x2="17.77" y2="27.63" gradientUnits="userSpaceOnUse"><stop offset="0.04" stop-color="#f05eb7"/><stop offset="0.8" stop-color="#a170cc"/></linearGradient><linearGradient id="linear-gradient-3" x1="-88.39" y1="-90.16" x2="-90.02" y2="-88.7" gradientTransform="translate(114.41 97.2) rotate(-2.03)" xlink:href="#linear-gradient"/><linearGradient id="linear-gradient-4" x1="-198.8" y1="-185.5" x2="-200.05" y2="-184.14" gradientTransform="translate(235.57 196.2) rotate(-4.2)" xlink:href="#linear-gradient"/><linearGradient id="linear-gradient-5" x1="-192.44" y1="-197.16" x2="-194.08" y2="-195.7" gradientTransform="translate(235.57 196.2) rotate(-4.2)" xlink:href="#linear-gradient"/><linearGradient id="linear-gradient-6" x1="-192.76" y1="-189.96" x2="-194.33" y2="-188.42" gradientTransform="translate(235.57 196.2) rotate(-4.2)" xlink:href="#linear-gradient"/><linearGradient id="linear-gradient-7" x1="-197.46" y1="-195.21" x2="-201.35" y2="-191.33" gradientTransform="translate(235.57 196.2) rotate(-4.2)" gradientUnits="userSpaceOnUse"><stop offset="0.04" stop-color="#ffdc00"/><stop offset="0.8" stop-color="#fba313"/></linearGradient><linearGradient id="linear-gradient-8" x1="31.89" y1="33.86" x2="29.09" y2="35.52" gradientUnits="userSpaceOnUse"><stop offset="0.04" stop-color="#ffdf3f"/><stop offset="0.8" stop-color="#fba313"/></linearGradient></defs><title>logotype vertical on white</title><g id="_Group_" data-name="&lt;Group&gt;"><g id="_Group_2" data-name="&lt;Group&gt;"><path id="_Path_" data-name="&lt;Path&gt;" class="cls-1" d="M35.15,29.61c3.92-2.68,5.85-8.16,4.32-13.78a12.23,12.23,0,0,0-15-8.11,13,13,0,0,0-6.89,4.55c1.16-2.11,4.49-4.47,8.2-5.22,8.1-1.63,13.68,3.11,14.9,8.59A13.58,13.58,0,0,1,35.15,29.61Z"/><path id="_Path_2" data-name="&lt;Path&gt;" class="cls-2" d="M35.15,29.61l-.07,0a11.6,11.6,0,0,1-1.47.8,10.12,10.12,0,0,0-2.71,1.63l0,0a4.3,4.3,0,0,0-1.76,2.1,1.63,1.63,0,0,0-.1.57,1.35,1.35,0,0,0,.05.53,1.6,1.6,0,0,0,.14.35,1.44,1.44,0,0,0,.28.35l.12.09a1.58,1.58,0,0,0,.56.23l.2,0a2.15,2.15,0,0,0,.47,0h0c-.16,0-.53.09-.85.13h0l-.53.07a5.46,5.46,0,0,1-.68.08c-7.35.71-11.31-6.8-6.37-11l0,0,.16-.13c.72-.56,2.13-1.4,3.11-2.16l.27-.22.52-.46a7.59,7.59,0,0,0,1.12-1.34c.06-.1.11-.2.17-.29s.12-.22.17-.33a6.66,6.66,0,0,0,.26-.67,5.33,5.33,0,0,0,.22-1.53,6.79,6.79,0,0,0-.82-3.34,1.61,1.61,0,0,0-.17-.28,6.64,6.64,0,0,0-6.17-2.74l-.59,0c-2.48.3-3.23,1.39-3.45,1.08v0a.21.21,0,0,1,0-.18.2.2,0,0,1,0-.07,2.1,2.1,0,0,1,.35-.72l0,0,0-.05a10.67,10.67,0,0,1,2.75-2.61h0a14.21,14.21,0,0,1,4.12-1.93A12.11,12.11,0,0,1,35.3,9.84c.15.11.3.22.44.34A11.84,11.84,0,0,1,39.2,15c.11.28.19.55.27.83C41,21.45,39.07,26.93,35.15,29.61Z"/><circle id="_Path_3" data-name="&lt;Path&gt;" class="cls-3" cx="21.98" cy="11.09" r="1.1"/><circle id="_Path_4" data-name="&lt;Path&gt;" class="cls-4" cx="23.08" cy="26.57" r="1.1"/><circle id="_Path_5" data-name="&lt;Path&gt;" class="cls-5" cx="28.41" cy="14.5" r="1.1"/><circle id="_Path_6" data-name="&lt;Path&gt;" class="cls-6" cx="28.64" cy="21.76" r="1.1"/><circle id="_Path_7" data-name="&lt;Path&gt;" class="cls-7" cx="22.38" cy="18.25" r="2.75"/><path id="_Path_8" data-name="&lt;Path&gt;" class="cls-8" d="M32,36.17a6.37,6.37,0,0,1-1.16.22c-.08,0-.27,0-.5,0l-.2,0a1.58,1.58,0,0,1-.56-.23L29.46,36a1.44,1.44,0,0,1-.28-.35,1.6,1.6,0,0,1-.14-.35,1.35,1.35,0,0,1-.05-.53,1.63,1.63,0,0,1,.1-.57,4.3,4.3,0,0,1,1.76-2.1A2.78,2.78,0,0,0,30,35.18,1.93,1.93,0,0,0,32,36.17Z"/></g><g id="_Group_3" data-name="&lt;Group&gt;"><polygon id="_Path_9" data-name="&lt;Path&gt;" class="cls-9" points="16.89 43.49 16.89 43.28 15.8 43.28 12.4 47.33 12.4 43.28 11.34 43.28 11.34 51.1 12.4 51.1 12.4 48.68 16.82 43.49 16.89 43.49"/><polygon id="_Path_10" data-name="&lt;Path&gt;" class="cls-9" points="14.87 46.85 14.19 47.65 14.16 47.68 16.05 51.04 16.07 51.1 17.36 51.1 14.94 46.98 14.87 46.85"/><path id="_Compound_Path_" data-name="&lt;Compound Path&gt;" class="cls-9" d="M21.93,45.89h0a3,3,0,0,0-1.63-.39h-.11a2.14,2.14,0,0,0-1.68.66l-.08.09.79.59.06-.07a1.16,1.16,0,0,1,.34-.24,2.09,2.09,0,0,1,.69-.09h.08a1.31,1.31,0,0,1,1,.28.69.69,0,0,1,.19.51v.66H19.9a1.82,1.82,0,0,0-1.33.47,1.54,1.54,0,0,0-.45,1.14,1.48,1.48,0,0,0,.52,1.17,2,2,0,0,0,1.42.49,2.54,2.54,0,0,0,1.19-.26,1.41,1.41,0,0,0,.29-.18v.37h1v-3.8A1.57,1.57,0,0,0,21.93,45.89Zm-.39,2.81v.47c0,.45-.1.74-.29.87a2,2,0,0,1-1,.18H20.2a1.26,1.26,0,0,1-.86-.24.69.69,0,0,1-.28-.54c0-.6.57-.73,1.05-.74Z"/><path id="_Compound_Path_2" data-name="&lt;Compound Path&gt;" class="cls-9" d="M37.09,45.89h0a3,3,0,0,0-1.63-.39h-.1a2.14,2.14,0,0,0-1.69.66l-.07.09.75.57,0,0,.07-.07a.78.78,0,0,1,.33-.24,2.16,2.16,0,0,1,.7-.09h0a1.36,1.36,0,0,1,1,.28.69.69,0,0,1,.19.51v.66H35.06a1.78,1.78,0,0,0-1.32.47,1.49,1.49,0,0,0-.45,1.14,1.47,1.47,0,0,0,.51,1.17,2,2,0,0,0,1.42.49,2.56,2.56,0,0,0,1.2-.26,1.34,1.34,0,0,0,.28-.18v.37h1v-3.8A1.57,1.57,0,0,0,37.09,45.89ZM36.7,48.7v.47c0,.45-.09.74-.29.87a2,2,0,0,1-1,.18h-.08A1.26,1.26,0,0,1,34.5,50a.65.65,0,0,1-.27-.54c0-.6.56-.73,1-.74Z"/><path id="_Path_11" data-name="&lt;Path&gt;" class="cls-9" d="M25.06,43.62h0a1.37,1.37,0,0,0-.42,1.13v.82h-.58v.73h.58v4.79h1V46.3h1.14v-.73H25.64v-.82a.53.53,0,0,1,.13-.39.54.54,0,0,1,.4-.14h.61v-.94h-.67A1.6,1.6,0,0,0,25.06,43.62Z"/><polygon id="_Path_12" data-name="&lt;Path&gt;" class="cls-9" points="30.39 48.89 30.37 48.91 31.6 51.07 31.61 51.09 32.88 51.09 31.01 48.18 30.39 48.89"/><polygon id="_Path_13" data-name="&lt;Path&gt;" class="cls-9" points="31.41 45.57 29.11 48.13 29.11 43.28 28.1 43.28 28.1 51.09 29.11 51.09 29.11 49.51 32.59 45.57 31.41 45.57"/><path id="_Path_14" data-name="&lt;Path&gt;" class="cls-9" d="M48.3,48.36h0a1.73,1.73,0,0,0-1.22-.51l-.94-.06a1.12,1.12,0,0,1-.62-.23.44.44,0,0,1-.19-.38.71.71,0,0,1,.25-.54,1.21,1.21,0,0,1,.79-.2,2.38,2.38,0,0,1,.84.14,3.66,3.66,0,0,1,.59.31l.08,0,.62-.73-.09-.06a2.93,2.93,0,0,0-.79-.46,4.14,4.14,0,0,0-.56-.15,5,5,0,0,0-.69,0,2.4,2.4,0,0,0-1.46.42,1.47,1.47,0,0,0-.59,1.26,1.34,1.34,0,0,0,.45,1.07,1.84,1.84,0,0,0,1.12.47l1,.09a1,1,0,0,1,.53.14.53.53,0,0,1,.22.48.67.67,0,0,1-.35.59,1.57,1.57,0,0,1-.83.2,2.45,2.45,0,0,1-1.72-.63l-.07-.06-.7.68.09.07a3.46,3.46,0,0,0,2.31.88A2.83,2.83,0,0,0,48,50.7a1.38,1.38,0,0,0,.65-1.22A1.73,1.73,0,0,0,48.3,48.36Z"/><path id="_Path_15" data-name="&lt;Path&gt;" class="cls-9" d="M42,51.77a.71.71,0,0,1-.1.39s0,0,0,0a.74.74,0,0,1-.58.23l-.21,0h0l-.12,0v.88l.06,0a.71.71,0,0,0,.28.09l.22,0h0a1.54,1.54,0,0,0,1-.42,1.23,1.23,0,0,0,.26-.35l0-.06h0a.21.21,0,0,0,0-.06,2.13,2.13,0,0,0,.12-.76V45.5H42Z"/><circle id="_Path_16" data-name="&lt;Path&gt;" class="cls-9" cx="42.52" cy="43.78" r="0.61"/><path id="_Path_17" data-name="&lt;Path&gt;" class="cls-9" d="M39.67,50a.61.61,0,1,0,.61.61A.61.61,0,0,0,39.67,50Z"/></g></g></svg>