<svg id="Layer_1" data-name="Layer 1" xmlns="http://www.w3.org/2000/svg" xmlns:xlink="http://www.w3.org/1999/xlink" viewBox="0 0 50 50"><defs><style>.cls-1{fill:#34004b;}.cls-2{fill:url(#linear-gradient);}.cls-3{fill:url(#linear-gradient-2);}.cls-4{fill:url(#linear-gradient-3);}.cls-5{fill:url(#linear-gradient-4);}.cls-6{fill:url(#linear-gradient-5);}.cls-7{fill:url(#linear-gradient-6);}.cls-8{fill:url(#linear-gradient-7);}.cls-9{fill:url(#linear-gradient-8);}</style><linearGradient id="linear-gradient" x1="34.79" y1="15" x2="20.44" y2="25.31" gradientUnits="userSpaceOnUse"><stop offset="0" stop-color="#ffdc00"/><stop offset="0.8" stop-color="#fba313"/></linearGradient><linearGradient id="linear-gradient-2" x1="35.32" y1="18.3" x2="13.77" y2="31.05" gradientUnits="userSpaceOnUse"><stop offset="0.04" stop-color="#f05eb7"/><stop offset="0.8" stop-color="#a170cc"/></linearGradient><linearGradient id="linear-gradient-3" x1="-86.67" y1="-86.86" x2="-88.3" y2="-85.39" gradientTransform="translate(108.52 97.44) rotate(-2.03)" xlink:href="#linear-gradient"/><linearGradient id="linear-gradient-4" x1="-190.83" y1="-182.17" x2="-192.08" y2="-180.81" gradientTransform="translate(223.34 196.94) rotate(-4.2)" xlink:href="#linear-gradient"/><linearGradient id="linear-gradient-5" x1="-184.34" y1="-193.95" x2="-185.98" y2="-192.5" gradientTransform="translate(223.34 196.94) rotate(-4.2)" xlink:href="#linear-gradient"/><linearGradient id="linear-gradient-6" x1="-184.73" y1="-186.69" x2="-186.3" y2="-185.15" gradientTransform="translate(223.34 196.94) rotate(-4.2)" xlink:href="#linear-gradient"/><linearGradient id="linear-gradient-7" x1="-189.23" y1="-192.14" x2="-193.12" y2="-188.26" gradientTransform="translate(223.34 196.94) rotate(-4.2)" gradientUnits="userSpaceOnUse"><stop offset="0.04" stop-color="#ffdc00"/><stop offset="0.8" stop-color="#fba313"/></linearGradient><linearGradient id="linear-gradient-8" x1="27.89" y1="37.28" x2="25.09" y2="38.94" gradientUnits="userSpaceOnUse"><stop offset="0.04" stop-color="#ffdf3f"/><stop offset="0.8" stop-color="#fba313"/></linearGradient></defs><title>logomark circle</title><g id="_Group_" data-name="&lt;Group&gt;"><rect id="_Rectangle_" data-name="&lt;Rectangle&gt;" class="cls-1" width="50" height="50" rx="25" ry="25"/><path class="cls-2" d="M31.15,33c3.92-2.68,5.85-8.16,4.32-13.78C34,14,27.73,9.79,20.48,11.81c-3,.85-5.66,2.1-6.89,3.88,1.16-2.11,4.49-4.47,8.2-5.22,8.1-1.63,13.68,3.11,14.9,8.59A13.58,13.58,0,0,1,31.15,33Z"/><path class="cls-3" d="M31.15,33l-.07,0a11.6,11.6,0,0,1-1.47.8A10.12,10.12,0,0,0,26.9,35.5l0,0a4.3,4.3,0,0,0-1.76,2.1,1.63,1.63,0,0,0-.1.57,1.35,1.35,0,0,0,.05.53,1.6,1.6,0,0,0,.14.35,1.44,1.44,0,0,0,.28.35l.12.09a1.58,1.58,0,0,0,.56.23l.2,0a2.15,2.15,0,0,0,.47,0h0c-.16,0-.53.09-.85.13a0,0,0,0,1,0,0l-.53.07a5.46,5.46,0,0,1-.68.08c-7.35.71-11.31-6.8-6.37-11l0,0,.16-.13c.72-.56,2.13-1.4,3.11-2.16l.27-.22.52-.46a7.59,7.59,0,0,0,1.12-1.34c.06-.1.11-.2.17-.29s.12-.22.17-.33a6.66,6.66,0,0,0,.26-.67A5.33,5.33,0,0,0,24.4,22a6.79,6.79,0,0,0-.82-3.34,1.61,1.61,0,0,0-.17-.28,6.64,6.64,0,0,0-6.17-2.74l-.59,0c-2.48.3-3.23,1.39-3.45,1.08v0a.21.21,0,0,1,0-.18.2.2,0,0,1,0-.07,2.1,2.1,0,0,1,.35-.72l0,0,0-.05a10.67,10.67,0,0,1,2.75-2.61h0a14.21,14.21,0,0,1,4.12-1.93A12.11,12.11,0,0,1,31.3,13.26c.15.11.3.22.44.34a11.84,11.84,0,0,1,3.46,4.82c.11.28.19.55.27.83C37,24.87,35.07,30.35,31.15,33Z"/><circle id="_Path_" data-name="&lt;Path&gt;" class="cls-4" cx="17.98" cy="14.51" r="1.1"/><circle id="_Path_2" data-name="&lt;Path&gt;" class="cls-5" cx="19.08" cy="29.99" r="1.1"/><circle id="_Path_3" data-name="&lt;Path&gt;" class="cls-6" cx="24.41" cy="17.92" r="1.1"/><circle id="_Path_4" data-name="&lt;Path&gt;" class="cls-7" cx="24.64" cy="25.18" r="1.1"/><circle id="_Path_5" data-name="&lt;Path&gt;" class="cls-8" cx="18.38" cy="21.67" r="2.75"/><path class="cls-9" d="M28,39.59a6.37,6.37,0,0,1-1.16.22c-.08,0-.27,0-.5,0l-.2,0a1.58,1.58,0,0,1-.56-.23l-.12-.09a1.44,1.44,0,0,1-.28-.35,1.6,1.6,0,0,1-.14-.35A1.35,1.35,0,0,1,25,38.2a1.63,1.63,0,0,1,.1-.57,4.3,4.3,0,0,1,1.76-2.1A2.78,2.78,0,0,0,26,38.6,1.93,1.93,0,0,0,28,39.59Z"/></g></svg>