<svg id="Layer_1" data-name="Layer 1" xmlns="http://www.w3.org/2000/svg" xmlns:xlink="http://www.w3.org/1999/xlink" viewBox="0 0 165 70"><defs><style>.cls-1{fill:#34004b;}.cls-2{fill:url(#linear-gradient);}.cls-3{fill:url(#linear-gradient-2);}.cls-4{fill:url(#linear-gradient-3);}.cls-5{fill:url(#linear-gradient-4);}.cls-6{fill:url(#linear-gradient-5);}.cls-7{fill:url(#linear-gradient-6);}.cls-8{fill:url(#linear-gradient-7);}.cls-9{fill:url(#linear-gradient-8);}</style><linearGradient id="linear-gradient" x1="42.79" y1="23.54" x2="28.44" y2="33.86" gradientUnits="userSpaceOnUse"><stop offset="0" stop-color="#ffdc00"/><stop offset="0.8" stop-color="#fba313"/></linearGradient><linearGradient id="linear-gradient-2" x1="43.32" y1="26.85" x2="21.77" y2="39.59" gradientUnits="userSpaceOnUse"><stop offset="0.04" stop-color="#f05eb7"/><stop offset="0.8" stop-color="#a170cc"/></linearGradient><linearGradient id="linear-gradient-3" x1="-81.23" y1="-73.84" x2="-82.86" y2="-72.37" gradientTransform="translate(110.62 93.16) rotate(-2.03)" xlink:href="#linear-gradient"/><linearGradient id="linear-gradient-4" x1="-188.32" y1="-164.44" x2="-189.57" y2="-163.08" gradientTransform="translate(227.54 187.98) rotate(-4.2)" xlink:href="#linear-gradient"/><linearGradient id="linear-gradient-5" x1="-181.83" y1="-176.23" x2="-183.47" y2="-174.77" gradientTransform="translate(227.54 187.98) rotate(-4.2)" xlink:href="#linear-gradient"/><linearGradient id="linear-gradient-6" x1="-182.22" y1="-168.96" x2="-183.79" y2="-167.43" gradientTransform="translate(227.54 187.98) rotate(-4.2)" xlink:href="#linear-gradient"/><linearGradient id="linear-gradient-7" x1="-186.72" y1="-174.41" x2="-190.61" y2="-170.54" gradientTransform="translate(227.54 187.98) rotate(-4.2)" gradientUnits="userSpaceOnUse"><stop offset="0.04" stop-color="#ffdc00"/><stop offset="0.8" stop-color="#fba313"/></linearGradient><linearGradient id="linear-gradient-8" x1="35.89" y1="45.83" x2="33.09" y2="47.48" gradientUnits="userSpaceOnUse"><stop offset="0.04" stop-color="#ffdf3f"/><stop offset="0.8" stop-color="#fba313"/></linearGradient></defs><title>logotype horizontal on white</title><polygon class="cls-1" points="67.81 26.44 67.91 26.44 67.91 26.2 65.69 26.2 58.13 35.2 58.13 26.2 56.06 26.2 56.06 42.99 58.13 42.99 58.13 37.94 58.13 37.8 67.81 26.44"/><polygon class="cls-1" points="63.6 34.05 62.22 35.67 66.28 42.93 66.31 42.99 68.84 42.99 63.69 34.19 63.6 34.05"/><path class="cls-1" d="M78.92,31.85h0A6.42,6.42,0,0,0,75.44,31h-.23a4.58,4.58,0,0,0-3.59,1.42l-.08.09,1.53,1.17.07-.08a2.18,2.18,0,0,1,.77-.55,4.61,4.61,0,0,1,1.56-.21,3.14,3.14,0,0,1,2.33.64,1.58,1.58,0,0,1,.44,1.2v1.53H74.56a3.83,3.83,0,0,0-2.8,1,3.21,3.21,0,0,0-1,2.39,3.12,3.12,0,0,0,1.08,2.48,4.33,4.33,0,0,0,3,1,5.58,5.58,0,0,0,2.54-.55,2.86,2.86,0,0,0,.78-.55V43h2V34.82A3.32,3.32,0,0,0,78.92,31.85Zm-.68,5.91V38.9c0,1-.22,1.68-.68,2a4.29,4.29,0,0,1-2.17.41h-.18a2.79,2.79,0,0,1-1.94-.56,1.54,1.54,0,0,1-.63-1.25c0-1.09.81-1.69,2.38-1.73Z"/><path class="cls-1" d="M111.93,31.85h0a6.4,6.4,0,0,0-3.48-.83h-.23a4.55,4.55,0,0,0-3.58,1.42l-.09.09,1.53,1.17.08-.08a2.06,2.06,0,0,1,.76-.55,4.65,4.65,0,0,1,1.56-.21,3.2,3.2,0,0,1,2.33.64,1.62,1.62,0,0,1,.45,1.2v1.53h-3.68a3.84,3.84,0,0,0-2.81,1,3.19,3.19,0,0,0-1,2.39,3.13,3.13,0,0,0,1.09,2.48,4.31,4.31,0,0,0,3,1,5.58,5.58,0,0,0,2.54-.55,3.35,3.35,0,0,0,.79-.55V43h2V34.82A3.32,3.32,0,0,0,111.93,31.85Zm-.68,5.91V38.9c0,1-.23,1.68-.69,2a4.29,4.29,0,0,1-2.17.41h-.17a2.76,2.76,0,0,1-1.94-.56,1.51,1.51,0,0,1-.64-1.25c0-1.09.81-1.69,2.38-1.73Z"/><path class="cls-1" d="M85.86,26.9A3,3,0,0,0,85,29.29v1.88H83.74v1.39H85V43h2V32.56h2.48V31.17H87V29.29a1.23,1.23,0,0,1,.3-.94,1.35,1.35,0,0,1,1-.32h1.15V26.19H88.09A3.48,3.48,0,0,0,85.86,26.9Z"/><polygon class="cls-1" points="97.49 38.36 100.12 42.98 102.63 42.98 98.73 36.94 97.49 38.36"/><polygon class="cls-1" points="101.95 31.17 99.66 31.17 94.5 36.93 94.5 26.19 92.53 26.19 92.53 42.98 94.5 42.98 94.5 39.59 101.78 31.36 101.95 31.17"/><path class="cls-1" d="M136.3,37.22a3.57,3.57,0,0,0-2.59-1.07l-2-.15a2.34,2.34,0,0,1-1.41-.51,1.05,1.05,0,0,1-.45-.93,1.57,1.57,0,0,1,.58-1.23,2.6,2.6,0,0,1,1.78-.48,5.23,5.23,0,0,1,1.89.32,7.23,7.23,0,0,1,1.29.68l.09.06,1.22-1.43-.1-.07a6.7,6.7,0,0,0-1.69-1,6.21,6.21,0,0,0-1.22-.32,9.66,9.66,0,0,0-1.48-.1,5.06,5.06,0,0,0-3.1.9,3.05,3.05,0,0,0-1.24,2.65,2.88,2.88,0,0,0,.93,2.26,3.93,3.93,0,0,0,2.39,1l2.19.19a2.33,2.33,0,0,1,1.21.34,1.26,1.26,0,0,1,.52,1.13,1.57,1.57,0,0,1-.8,1.38,3.55,3.55,0,0,1-1.87.45,5.43,5.43,0,0,1-3.81-1.4l-.09-.07-1.36,1.33.1.09a7.56,7.56,0,0,0,5,1.88,6.16,6.16,0,0,0,3.5-1A2.92,2.92,0,0,0,137,39.59h0A3.65,3.65,0,0,0,136.3,37.22Z"/><path class="cls-1" d="M122.82,44.57a1.8,1.8,0,0,1-.22.89.13.13,0,0,1,0,0,1.65,1.65,0,0,1-1.37.55l-.5-.07-.13,0V47.7l.06,0a1.9,1.9,0,0,0,.57.18,3.89,3.89,0,0,0,.47,0h0a3.34,3.34,0,0,0,2.21-.9,2.56,2.56,0,0,0,.55-.72l.06-.12v0a1.12,1.12,0,0,0,0-.13,4.46,4.46,0,0,0,.25-1.61V31h-2Z"/><circle class="cls-1" cx="123.81" cy="27.18" r="1.22"/><path class="cls-1" d="M117.59,40.77A1.23,1.23,0,1,0,118.82,42,1.22,1.22,0,0,0,117.59,40.77Z"/><path class="cls-2" d="M39.15,41.57c3.92-2.68,5.85-8.16,4.32-13.78a12.23,12.23,0,0,0-15-8.11,13,13,0,0,0-6.89,4.55c1.16-2.11,4.49-4.47,8.2-5.22,8.1-1.63,13.68,3.11,14.9,8.59A13.58,13.58,0,0,1,39.15,41.57Z"/><path class="cls-3" d="M39.15,41.57l-.07,0a11.6,11.6,0,0,1-1.47.8A10.12,10.12,0,0,0,34.9,44l0,0a4.3,4.3,0,0,0-1.76,2.1,1.63,1.63,0,0,0-.1.57,1.35,1.35,0,0,0,0,.53,1.6,1.6,0,0,0,.14.35,1.44,1.44,0,0,0,.28.35l.12.09a1.58,1.58,0,0,0,.56.23l.2,0a2.15,2.15,0,0,0,.47,0h0c-.16,0-.53.09-.85.13a0,0,0,0,1,0,0l-.53.07a5.46,5.46,0,0,1-.68.08c-7.35.71-11.31-6.8-6.37-11l0,0,.16-.13c.72-.56,2.13-1.4,3.11-2.16l.27-.22.52-.46a7.59,7.59,0,0,0,1.12-1.34c.06-.1.11-.2.17-.29s.12-.22.17-.33a6.66,6.66,0,0,0,.26-.67,5.33,5.33,0,0,0,.22-1.53,6.79,6.79,0,0,0-.82-3.34,1.61,1.61,0,0,0-.17-.28,6.64,6.64,0,0,0-6.17-2.74l-.59,0c-2.48.3-3.23,1.39-3.45,1.08h0a.24.24,0,0,1,0-.19.2.2,0,0,1,0-.07,2.1,2.1,0,0,1,.35-.72l0,0s0,0,0-.05a10.67,10.67,0,0,1,2.75-2.61h0a14.21,14.21,0,0,1,4.12-1.93A12.11,12.11,0,0,1,39.3,21.8c.15.11.3.22.44.34A11.84,11.84,0,0,1,43.2,27c.11.28.19.55.27.83C45,33.41,43.07,38.89,39.15,41.57Z"/><circle id="_Path_" data-name="&lt;Path&gt;" class="cls-4" cx="25.98" cy="23.06" r="1.1"/><circle id="_Path_2" data-name="&lt;Path&gt;" class="cls-5" cx="27.08" cy="38.53" r="1.1"/><circle id="_Path_3" data-name="&lt;Path&gt;" class="cls-6" cx="32.41" cy="26.46" r="1.1"/><circle id="_Path_4" data-name="&lt;Path&gt;" class="cls-7" cx="32.64" cy="33.72" r="1.1"/><circle id="_Path_5" data-name="&lt;Path&gt;" class="cls-8" cx="26.38" cy="30.22" r="2.75"/><path class="cls-9" d="M36,48.13a6.37,6.37,0,0,1-1.16.22c-.08,0-.27,0-.5,0l-.2,0a1.58,1.58,0,0,1-.56-.23L33.46,48a1.44,1.44,0,0,1-.28-.35,1.6,1.6,0,0,1-.14-.35,1.35,1.35,0,0,1,0-.53,1.63,1.63,0,0,1,.1-.57,4.3,4.3,0,0,1,1.76-2.1A2.78,2.78,0,0,0,34,47.14,1.93,1.93,0,0,0,36,48.13Z"/></svg>