<svg id="Layer_1" data-name="Layer 1" xmlns="http://www.w3.org/2000/svg" xmlns:xlink="http://www.w3.org/1999/xlink" viewBox="0 0 60 60"><defs><style>.cls-1{fill:#34004b;}.cls-2{fill:url(#linear-gradient);}.cls-3{fill:url(#linear-gradient-2);}.cls-4{fill:url(#linear-gradient-3);}.cls-5{fill:url(#linear-gradient-4);}.cls-6{fill:url(#linear-gradient-5);}.cls-7{fill:url(#linear-gradient-6);}.cls-8{fill:url(#linear-gradient-7);}.cls-9{fill:url(#linear-gradient-8);}.cls-10{fill:#ffdc00;}</style><linearGradient id="linear-gradient" x1="38.79" y1="11.58" x2="24.44" y2="21.89" gradientUnits="userSpaceOnUse"><stop offset="0" stop-color="#ffdc00"/><stop offset="0.8" stop-color="#fba313"/></linearGradient><linearGradient id="linear-gradient-2" x1="39.32" y1="14.88" x2="17.77" y2="27.63" gradientUnits="userSpaceOnUse"><stop offset="0.04" stop-color="#f05eb7"/><stop offset="0.8" stop-color="#a170cc"/></linearGradient><linearGradient id="linear-gradient-3" x1="-88.4" y1="-93.11" x2="-90.03" y2="-91.64" gradientTransform="translate(114.47 100.2) rotate(-2.03)" xlink:href="#linear-gradient"/><linearGradient id="linear-gradient-4" x1="-198.61" y1="-191.68" x2="-199.86" y2="-190.32" gradientTransform="translate(235.8 202.43) rotate(-4.2)" xlink:href="#linear-gradient"/><linearGradient id="linear-gradient-5" x1="-192.12" y1="-203.46" x2="-193.76" y2="-202" gradientTransform="translate(235.8 202.43) rotate(-4.2)" xlink:href="#linear-gradient"/><linearGradient id="linear-gradient-6" x1="-192.51" y1="-196.2" x2="-194.08" y2="-194.66" gradientTransform="translate(235.8 202.43) rotate(-4.2)" xlink:href="#linear-gradient"/><linearGradient id="linear-gradient-7" x1="-197.01" y1="-201.65" x2="-200.9" y2="-197.77" gradientTransform="translate(235.8 202.43) rotate(-4.2)" gradientUnits="userSpaceOnUse"><stop offset="0.04" stop-color="#ffdc00"/><stop offset="0.8" stop-color="#fba313"/></linearGradient><linearGradient id="linear-gradient-8" x1="31.89" y1="33.86" x2="29.09" y2="35.52" gradientUnits="userSpaceOnUse"><stop offset="0.04" stop-color="#ffdf3f"/><stop offset="0.8" stop-color="#fba313"/></linearGradient></defs><title>logotype vertical with background</title><rect id="_Rectangle_" data-name="&lt;Rectangle&gt;" class="cls-1" width="60" height="60"/><path class="cls-2" d="M35.15,29.61c3.92-2.68,5.85-8.16,4.32-13.78a12.23,12.23,0,0,0-15-8.11,13,13,0,0,0-6.89,4.55c1.16-2.11,4.49-4.47,8.2-5.22,8.1-1.63,13.68,3.11,14.9,8.59A13.58,13.58,0,0,1,35.15,29.61Z"/><path class="cls-3" d="M35.15,29.61l-.07,0a11.6,11.6,0,0,1-1.47.8,10.12,10.12,0,0,0-2.71,1.63l0,0a4.3,4.3,0,0,0-1.76,2.1,1.63,1.63,0,0,0-.1.57,1.35,1.35,0,0,0,.05.53,1.6,1.6,0,0,0,.14.35,1.44,1.44,0,0,0,.28.35l.12.09a1.58,1.58,0,0,0,.56.23l.2,0a2.15,2.15,0,0,0,.47,0h0c-.16,0-.53.09-.85.13h0l-.53.07a5.46,5.46,0,0,1-.68.08c-7.35.71-11.31-6.8-6.37-11l0,0,.16-.13c.72-.56,2.13-1.4,3.11-2.16l.27-.22.52-.46a7.59,7.59,0,0,0,1.12-1.34c.06-.1.11-.2.17-.29s.12-.22.17-.33a6.66,6.66,0,0,0,.26-.67,5.33,5.33,0,0,0,.22-1.53,6.79,6.79,0,0,0-.82-3.34,1.61,1.61,0,0,0-.17-.28,6.64,6.64,0,0,0-6.17-2.74l-.59,0c-2.48.3-3.23,1.39-3.45,1.08v0a.21.21,0,0,1,0-.18.2.2,0,0,1,0-.07,2.1,2.1,0,0,1,.35-.72l0,0,0-.05a10.67,10.67,0,0,1,2.75-2.61h0a14.21,14.21,0,0,1,4.12-1.93A12.11,12.11,0,0,1,35.3,9.84c.15.11.3.22.44.34A11.84,11.84,0,0,1,39.2,15c.11.28.19.55.27.83C41,21.45,39.07,26.93,35.15,29.61Z"/><circle id="_Path_" data-name="&lt;Path&gt;" class="cls-4" cx="21.98" cy="11.09" r="1.1"/><circle id="_Path_2" data-name="&lt;Path&gt;" class="cls-5" cx="23.08" cy="26.57" r="1.1"/><circle id="_Path_3" data-name="&lt;Path&gt;" class="cls-6" cx="28.41" cy="14.5" r="1.1"/><circle id="_Path_4" data-name="&lt;Path&gt;" class="cls-7" cx="28.64" cy="21.76" r="1.1"/><circle id="_Path_5" data-name="&lt;Path&gt;" class="cls-8" cx="22.38" cy="18.25" r="2.75"/><path class="cls-9" d="M32,36.17a6.37,6.37,0,0,1-1.16.22c-.08,0-.27,0-.5,0l-.2,0a1.58,1.58,0,0,1-.56-.23L29.46,36a1.44,1.44,0,0,1-.28-.35,1.6,1.6,0,0,1-.14-.35,1.35,1.35,0,0,1-.05-.53,1.63,1.63,0,0,1,.1-.57,4.3,4.3,0,0,1,1.76-2.1A2.78,2.78,0,0,0,30,35.18,1.93,1.93,0,0,0,32,36.17Z"/><polygon class="cls-10" points="16.8 43.44 16.84 43.44 16.84 43.34 15.82 43.34 12.35 47.47 12.35 43.34 11.39 43.34 11.39 51.05 12.35 51.05 12.35 48.73 12.35 48.66 16.8 43.44"/><polygon class="cls-10" points="14.86 46.94 14.22 47.68 16.09 51.02 16.11 51.05 17.27 51.05 14.9 47.01 14.86 46.94"/><path class="cls-10" d="M21.9,45.93h0a2.87,2.87,0,0,0-1.6-.38h-.11a2.07,2.07,0,0,0-1.64.66l0,0,.7.54,0,0a.9.9,0,0,1,.36-.25,2,2,0,0,1,.71-.1,1.45,1.45,0,0,1,1.07.29.75.75,0,0,1,.21.55v.71H19.9a1.8,1.8,0,0,0-1.29.45,1.58,1.58,0,0,0,.06,2.25,2,2,0,0,0,1.39.47,2.58,2.58,0,0,0,1.17-.25,1.64,1.64,0,0,0,.36-.25V51h.91V47.29A1.52,1.52,0,0,0,21.9,45.93Zm-.31,2.72v.52c0,.47-.11.77-.32.91a1.92,1.92,0,0,1-1,.19H20.2a1.3,1.3,0,0,1-.89-.25.72.72,0,0,1-.3-.58c0-.5.37-.78,1.1-.79Z"/><path class="cls-10" d="M37.06,45.93h0a2.87,2.87,0,0,0-1.6-.38h-.1a2.09,2.09,0,0,0-1.65.66l0,0,.71.54,0,0a.94.94,0,0,1,.35-.25,2,2,0,0,1,.72-.1,1.49,1.49,0,0,1,1.07.29.75.75,0,0,1,.2.55v.71H35.06a1.8,1.8,0,0,0-1.29.45,1.52,1.52,0,0,0-.43,1.11,1.45,1.45,0,0,0,.5,1.14,2,2,0,0,0,1.38.47,2.55,2.55,0,0,0,1.17-.25,1.64,1.64,0,0,0,.36-.25V51h.91V47.29A1.52,1.52,0,0,0,37.06,45.93Zm-.31,2.72v.52c0,.47-.1.77-.31.91a2,2,0,0,1-1,.19h-.08a1.3,1.3,0,0,1-.89-.25.73.73,0,0,1-.29-.58c0-.5.37-.78,1.09-.79Z"/><path class="cls-10" d="M25.09,43.66a1.35,1.35,0,0,0-.4,1.09v.87h-.58v.63h.58V51h.9V46.25h1.14v-.63H25.59v-.87a.59.59,0,0,1,.14-.43.61.61,0,0,1,.48-.15h.52v-.84h-.62A1.56,1.56,0,0,0,25.09,43.66Z"/><polygon class="cls-10" points="30.43 48.92 31.64 51.04 32.79 51.04 31 48.27 30.43 48.92"/><polygon class="cls-10" points="32.48 45.62 31.43 45.62 29.06 48.26 29.06 43.33 28.15 43.33 28.15 51.04 29.06 51.04 29.06 49.49 32.4 45.71 32.48 45.62"/><path class="cls-10" d="M48.27,48.4a1.68,1.68,0,0,0-1.2-.5l-.93-.06a1.09,1.09,0,0,1-.65-.24.46.46,0,0,1-.21-.42.71.71,0,0,1,.27-.57,1.18,1.18,0,0,1,.82-.22,2.5,2.5,0,0,1,.86.14,4.3,4.3,0,0,1,.6.32l0,0,.56-.65,0,0a3.08,3.08,0,0,0-.77-.44,4.14,4.14,0,0,0-.56-.15,4.79,4.79,0,0,0-.68,0,2.37,2.37,0,0,0-1.43.41,1.41,1.41,0,0,0-.57,1.22,1.35,1.35,0,0,0,.43,1,1.8,1.8,0,0,0,1.1.45l1,.09a1.06,1.06,0,0,1,.56.15.57.57,0,0,1,.24.52.7.7,0,0,1-.37.63,1.59,1.59,0,0,1-.86.21,2.47,2.47,0,0,1-1.75-.64l0,0-.63.62.05,0a3.49,3.49,0,0,0,2.28.86,2.8,2.8,0,0,0,1.6-.45,1.34,1.34,0,0,0,.63-1.17h0A1.72,1.72,0,0,0,48.27,48.4Z"/><path class="cls-10" d="M42.07,51.77a.86.86,0,0,1-.1.41v0a.77.77,0,0,1-.63.25l-.23,0H41v.79l0,0a.87.87,0,0,0,.26.08l.22,0h0a1.54,1.54,0,0,0,1-.41,1.31,1.31,0,0,0,.25-.33.33.33,0,0,1,0-.06h0a.14.14,0,0,0,0-.06,2,2,0,0,0,.12-.74V45.55h-.91Z"/><circle class="cls-10" cx="42.52" cy="43.78" r="0.56"/><path class="cls-10" d="M39.67,50a.56.56,0,1,0,.56.56A.56.56,0,0,0,39.67,50Z"/></svg>