<svg viewBox="0 0 24 30" xmlns="http://www.w3.org/2000/svg"><defs><linearGradient x1="90.637%" y1="21.245%" x2="29.286%" y2="66.354%" id="a"><stop stop-color="#FFDC00" offset="0%"/><stop stop-color="#FBA313" offset="80%"/></linearGradient><linearGradient x1="97.043%" y1="25.965%" x2="2.587%" y2="69.371%" id="b"><stop stop-color="#F05EB7" offset="4%"/><stop stop-color="#A170CC" offset="80%"/></linearGradient><linearGradient x1="88.526%" y1="13.391%" x2="16.848%" y2="82.792%" id="c"><stop stop-color="#FFDC00" offset="0%"/><stop stop-color="#FBA313" offset="80%"/></linearGradient><linearGradient x1="77.303%" y1="15.694%" x2="25.165%" y2="81.507%" id="d"><stop stop-color="#FFDC00" offset="0%"/><stop stop-color="#FBA313" offset="80%"/></linearGradient><linearGradient x1="90.023%" y1="8.708%" x2="20.505%" y2="79.9%" id="e"><stop stop-color="#FFDC00" offset="0%"/><stop stop-color="#FBA313" offset="80%"/></linearGradient><linearGradient x1="86.057%" y1="9.121%" x2="20.012%" y2="84.159%" id="f"><stop stop-color="#FFDC00" offset="0%"/><stop stop-color="#FBA313" offset="80%"/></linearGradient><linearGradient x1="89.385%" y1="4.634%" x2="24.015%" y2="80.17%" id="g"><stop stop-color="#FFDC00" offset="4%"/><stop stop-color="#FBA313" offset="80%"/></linearGradient><linearGradient x1="96.353%" y1="40.888%" x2="3.508%" y2="79.673%" id="h"><stop stop-color="#FFDF3F" offset="4%"/><stop stop-color="#FBA313" offset="80%"/></linearGradient></defs><g transform="translate(-13 -10)" fill="none" fill-rule="evenodd"><path d="M31.15 33c3.92-2.68 5.85-8.16 4.32-13.78C34 14 27.73 9.79 20.48 11.81c-3 .85-5.66 2.1-6.89 3.88 1.16-2.11 4.49-4.47 8.2-5.22 8.1-1.63 13.68 3.11 14.9 8.59A13.58 13.58 0 0 1 31.15 33z" fill="url(#a)"/><path d="M31.15 33h-.07a11.6 11.6 0 0 1-1.47.8 10.12 10.12 0 0 0-2.71 1.7 4.3 4.3 0 0 0-1.76 2.1 1.63 1.63 0 0 0-.1.57 1.35 1.35 0 0 0 .05.53c.033.122.08.24.14.35.074.13.169.249.28.35l.12.09c.17.112.36.19.56.23h.2c.156.017.314.017.47 0-.16 0-.53.09-.85.13l-.53.07a5.46 5.46 0 0 1-.68.08c-7.35.71-11.31-6.8-6.37-11l.16-.13c.72-.56 2.13-1.4 3.11-2.16l.27-.22.52-.46a7.59 7.59 0 0 0 1.12-1.34c.06-.1.11-.2.17-.29.06-.09.12-.22.17-.33a6.66 6.66 0 0 0 .26-.67 5.33 5.33 0 0 0 .19-1.4 6.79 6.79 0 0 0-.82-3.34 1.61 1.61 0 0 0-.17-.28 6.64 6.64 0 0 0-6.17-2.74h-.59c-2.48.3-3.23 1.39-3.45 1.08a.21.21 0 0 1 0-.18.2.2 0 0 1 0-.07 2.1 2.1 0 0 1 .35-.72v-.05a10.67 10.67 0 0 1 2.75-2.61 14.21 14.21 0 0 1 4.12-1.93 12.11 12.11 0 0 1 10.88 2.1c.15.11.3.22.44.34a11.84 11.84 0 0 1 3.46 4.82c.11.28.19.55.27.83 1.53 5.62-.4 11.1-4.32 13.75z" fill="url(#b)"/><circle fill="url(#c)" cx="17.98" cy="14.51" r="1.1"/><circle fill="url(#d)" cx="19.08" cy="29.99" r="1.1"/><circle fill="url(#e)" cx="24.41" cy="17.92" r="1.1"/><circle fill="url(#f)" cx="24.64" cy="25.18" r="1.1"/><circle fill="url(#g)" cx="18.38" cy="21.67" r="2.75"/><path d="M28 39.59a6.37 6.37 0 0 1-1.16.22h-.7a1.58 1.58 0 0 1-.56-.23l-.12-.09a1.44 1.44 0 0 1-.28-.35 1.6 1.6 0 0 1-.14-.35 1.35 1.35 0 0 1-.04-.59c0-.194.033-.387.1-.57a4.3 4.3 0 0 1 1.76-2.1A2.78 2.78 0 0 0 26 38.6a1.93 1.93 0 0 0 2 .99z" fill="url(#h)"/></g></svg>