<svg width="210" height="340" xmlns="http://www.w3.org/2000/svg"><path fill="none" d="M-1-1h212v342H-1z"/><path fill="#fff" d="M139.9 224.55l6.9-12.2-42.1-24c-1.8 4.4-4.2 8.4-7.1 12.1l42.3 24.1z"/><path fill="none" d="M133.3 100.15c1.7 11.6-.9 21.6-7.6 28.9-6 6.5-15 10.6-26.5 12.3 5.4 7.5 8.8 16.6 9.2 26.4 1 .4 1.9 1 2.7 1.8.5-2.2 2.2-4.2 4.5-5 2.3-.8 4.7-.4 6.5 1 .1-2.2 1.2-4.4 3.3-5.7 2-1.2 4.4-1.4 6.4-.5-.4-2.1.1-4.4 1.7-6.2 1.6-1.7 3.8-2.5 6-2.2-1-1.9-1.1-4.3 0-6.4 1.1-2.1 3.1-3.5 5.3-3.8-1.5-1.6-2.2-4-1.6-6.3.6-2.4 2.3-4.2 4.5-5-1.9-1.4-3-3.6-2.9-6.1.1-2.5 1.6-4.6 3.7-5.8-2.1-1.1-3.6-3.2-3.8-5.7-.2-2.6 1-4.9 3-6.3-2.3-.8-4-2.8-4.5-5.4-.6-3.4 1.4-6.7 4.5-7.8-2.4-1.9-3.3-5.3-2.1-8.3 1.2-2.7 3.9-4.3 6.7-4.2-.3-.4-.5-.9-.7-1.4-17.5 7.4-19.4 14.8-18.3 21.7z"/><path fill="#fff" d="M172.8 64.85c-.9-3.2-3.8-5.3-7-5.2h-.2c-1 0-2 .2-2.9.6-15.4 4.1-47.6 13.7-43.4 42 1.1 7.4-.3 13.2-4.1 17.3-5.4 5.9-16.2 8.9-30.5 8.5 5.6 3.4 10.5 7.9 14.3 13.2 11.5-1.6 20.6-5.8 26.5-12.3 6.7-7.3 9.4-17.3 7.6-28.9-1-7 .9-14.3 18.2-21.4.2.5.4.9.7 1.4-2.8-.1-5.5 1.5-6.7 4.2-1.3 3-.4 6.3 2.1 8.3-3.2 1.1-5.1 4.4-4.5 7.8.4 2.5 2.2 4.5 4.5 5.4-2 1.4-3.2 3.7-3 6.3.2 2.5 1.7 4.6 3.8 5.7-2.1 1.1-3.5 3.2-3.7 5.8-.1 2.5 1 4.7 2.9 6.1-2.1.8-3.9 2.6-4.5 5-.5 2.3.1 4.7 1.6 6.3-2.2.3-4.2 1.6-5.3 3.8-1.1 2.1-1 4.4 0 6.4-2.1-.3-4.4.5-6 2.2-1.6 1.7-2.1 4-1.7 6.2-2-.8-4.4-.7-6.4.5-2 1.3-3.2 3.4-3.3 5.7-1.8-1.4-4.2-1.8-6.5-1s-4 2.8-4.5 5c-.7-.8-1.6-1.4-2.7-1.8 0 .7.1 1.5.1 2.2 0 3.8-.5 7.6-1.3 11.2 2.8-.5 4.9-2.7 5.5-5.3 1.8 2 4.8 2.9 7.5 1.9 2.8-1 4.6-3.5 4.7-6.3 2.2 1.7 5.4 1.9 7.9.3 2.5-1.6 3.7-4.6 3.1-7.3 2.6 1.1 5.8.5 7.9-1.7 2-2.2 2.4-5.4 1.1-8 2.8.3 5.7-1.1 7.1-3.8 1.4-2.7.8-5.8-1.1-7.9 2.8-.4 5.1-2.4 5.8-5.3.7-2.8-.5-5.7-2.7-7.3 2.6-.9 4.5-3.3 4.6-6.2.2-2.9-1.4-5.4-3.8-6.6 2.4-1.3 3.9-3.9 3.6-6.7-.2-2.8-2.1-5.1-4.6-6 2.2-1.5 3.4-4.2 2.9-7-.3-1.8-1.2-3.2-2.5-4.3 1.8-.6 3.3-2 4.1-3.8 1-2.2.7-4.7-.5-6.6 2.3.1 4.6-1 6-3 1.3-1.8 1.5-4.1.9-6.1 1-.3 2.1-.6 3.2-.9 4-1 6.2-4.9 5.2-8.6z"/><path d="M87 178.35zm21.3-10.6c-.4-9.9-3.8-18.9-9.2-26.4-3.8-5.3-8.7-9.8-14.3-13.2-7.4-4.5-16.1-7.1-25.5-7.1-27.1 0-49 21.9-49 49s21.9 49 49 49c15.5 0 29.3-7.2 38.3-18.5 2.9-3.6 5.3-7.7 7.1-12.1 1-2.3 1.7-4.8 2.3-7.3.8-3.6 1.3-7.3 1.3-11.2v-2.2zm-15.9 13.7l-.3.9c-1.6 4.1-3.9 7.9-6.8 11.1-6.4 7.1-15.6 11.5-25.9 11.5-19.3 0-35-15.7-35-35s15.7-35 35-35c5.1 0 9.9 1.1 14.2 3 2.4 1.1 4.6 2.4 6.7 3.9 8.2 6.1 13.6 15.7 14.1 26.6v1.4c-.1 4.1-.7 8-2 11.6zm72.8 29.7c11.3 0 20.5 9.2 20.5 20.5s-9.2 20.5-20.5 20.5-20.5-9.2-20.5-20.5 9.2-20.5 20.5-20.5m0-14c-19.1 0-34.5 15.4-34.5 34.5s15.4 34.5 34.5 34.5 34.5-15.4 34.5-34.5-15.4-34.5-34.5-34.5z" fill="#fff"/><path d="M51.9 78.65v48.8h14v-48.6c15.9-3.1 28-17.1 28-33.9 0-19.1-15.4-34.5-34.5-34.5s-34.5 15.4-34.5 34.5c-.1 16.5 11.5 30.3 27 33.7zm7.4-54.2c11.3 0 20.5 9.2 20.5 20.5s-9.1 20.5-20.5 20.5c-11.3 0-20.5-9.2-20.5-20.5s9.2-20.5 20.5-20.5zm6.3 236.6h.3l.5-47.5-14-.1-.5 47.5h1.9c-16.4 2.6-29 16.9-29 34.1 0 19.1 15.4 34.5 34.5 34.5s34.5-15.4 34.5-34.5c0-17-12.1-31.1-28.2-34zm-6.3 54.4c-11.3 0-20.5-9.2-20.5-20.5s9.2-20.5 20.5-20.5 20.5 9.2 20.5 20.5-9.1 20.5-20.5 20.5z" fill="#fff"/></svg>